<mxfile host="Electron" modified="2024-04-16T20:31:49.033Z" agent="Mozilla/5.0 (Windows NT 10.0; Win64; x64) AppleWebKit/537.36 (KHTML, like Gecko) draw.io/22.1.2 Chrome/114.0.5735.289 Electron/25.9.4 Safari/537.36" etag="F75_9PipWRqPa4yto4VJ" version="22.1.2" type="device">
  <diagram name="Page-1" id="e56a1550-8fbb-45ad-956c-1786394a9013">
    <mxGraphModel dx="1658" dy="828" grid="1" gridSize="10" guides="1" tooltips="1" connect="1" arrows="1" fold="1" page="1" pageScale="1" pageWidth="1100" pageHeight="850" background="none" math="0" shadow="0">
      <root>
        <mxCell id="0" />
        <mxCell id="1" parent="0" />
        <mxCell id="LVxFtp3Oq3CbN3wsmhkk-7" value="workout_exercises" style="swimlane;html=1;fontStyle=0;childLayout=stackLayout;horizontal=1;startSize=26;fillColor=#e0e0e0;horizontalStack=0;resizeParent=1;resizeLast=0;collapsible=1;marginBottom=0;swimlaneFillColor=#ffffff;align=center;rounded=0;shadow=0;comic=0;labelBackgroundColor=none;strokeWidth=1;fontFamily=Verdana;fontSize=14" parent="1" vertex="1">
          <mxGeometry x="581" y="335" width="250" height="196" as="geometry" />
        </mxCell>
        <mxCell id="LVxFtp3Oq3CbN3wsmhkk-8" value="id INTEGER" style="shape=partialRectangle;top=0;left=0;right=0;bottom=1;html=1;align=left;verticalAlign=middle;fillColor=none;spacingLeft=34;spacingRight=4;whiteSpace=wrap;overflow=hidden;rotatable=0;points=[[0,0.5],[1,0.5]];portConstraint=eastwest;dropTarget=0;fontStyle=5;" parent="LVxFtp3Oq3CbN3wsmhkk-7" vertex="1">
          <mxGeometry y="26" width="250" height="30" as="geometry" />
        </mxCell>
        <mxCell id="LVxFtp3Oq3CbN3wsmhkk-9" value="PK" style="shape=partialRectangle;top=0;left=0;bottom=0;html=1;fillColor=none;align=left;verticalAlign=middle;spacingLeft=4;spacingRight=4;whiteSpace=wrap;overflow=hidden;rotatable=0;points=[];portConstraint=eastwest;part=1;" parent="LVxFtp3Oq3CbN3wsmhkk-8" vertex="1" connectable="0">
          <mxGeometry width="30" height="30" as="geometry" />
        </mxCell>
        <mxCell id="LVxFtp3Oq3CbN3wsmhkk-10" value="planned_workout_id INTEGER" style="shape=partialRectangle;top=0;left=0;right=0;bottom=0;html=1;align=left;verticalAlign=top;fillColor=none;spacingLeft=34;spacingRight=4;whiteSpace=wrap;overflow=hidden;rotatable=0;points=[[0,0.5],[1,0.5]];portConstraint=eastwest;dropTarget=0;" parent="LVxFtp3Oq3CbN3wsmhkk-7" vertex="1">
          <mxGeometry y="56" width="250" height="26" as="geometry" />
        </mxCell>
        <mxCell id="LVxFtp3Oq3CbN3wsmhkk-11" value="FK" style="shape=partialRectangle;top=0;left=0;bottom=0;html=1;fillColor=none;align=left;verticalAlign=top;spacingLeft=4;spacingRight=4;whiteSpace=wrap;overflow=hidden;rotatable=0;points=[];portConstraint=eastwest;part=1;" parent="LVxFtp3Oq3CbN3wsmhkk-10" vertex="1" connectable="0">
          <mxGeometry width="30" height="26" as="geometry" />
        </mxCell>
        <mxCell id="LVxFtp3Oq3CbN3wsmhkk-12" value="exercise_id INTEGER" style="shape=partialRectangle;top=0;left=0;right=0;bottom=0;html=1;align=left;verticalAlign=top;fillColor=none;spacingLeft=34;spacingRight=4;whiteSpace=wrap;overflow=hidden;rotatable=0;points=[[0,0.5],[1,0.5]];portConstraint=eastwest;dropTarget=0;" parent="LVxFtp3Oq3CbN3wsmhkk-7" vertex="1">
          <mxGeometry y="82" width="250" height="28" as="geometry" />
        </mxCell>
        <mxCell id="LVxFtp3Oq3CbN3wsmhkk-13" value="FK" style="shape=partialRectangle;top=0;left=0;bottom=0;html=1;fillColor=none;align=left;verticalAlign=top;spacingLeft=4;spacingRight=4;whiteSpace=wrap;overflow=hidden;rotatable=0;points=[];portConstraint=eastwest;part=1;" parent="LVxFtp3Oq3CbN3wsmhkk-12" vertex="1" connectable="0">
          <mxGeometry width="30" height="28" as="geometry" />
        </mxCell>
        <mxCell id="LVxFtp3Oq3CbN3wsmhkk-14" value="repeats INTEGER" style="shape=partialRectangle;top=0;left=0;right=0;bottom=0;html=1;align=left;verticalAlign=top;fillColor=none;spacingLeft=34;spacingRight=4;whiteSpace=wrap;overflow=hidden;rotatable=0;points=[[0,0.5],[1,0.5]];portConstraint=eastwest;dropTarget=0;" parent="LVxFtp3Oq3CbN3wsmhkk-7" vertex="1">
          <mxGeometry y="110" width="250" height="26" as="geometry" />
        </mxCell>
        <mxCell id="LVxFtp3Oq3CbN3wsmhkk-15" value="" style="shape=partialRectangle;top=0;left=0;bottom=0;html=1;fillColor=none;align=left;verticalAlign=top;spacingLeft=4;spacingRight=4;whiteSpace=wrap;overflow=hidden;rotatable=0;points=[];portConstraint=eastwest;part=1;" parent="LVxFtp3Oq3CbN3wsmhkk-14" vertex="1" connectable="0">
          <mxGeometry width="30" height="26" as="geometry" />
        </mxCell>
        <mxCell id="LVxFtp3Oq3CbN3wsmhkk-16" value="approaches INTEGER" style="shape=partialRectangle;top=0;left=0;right=0;bottom=0;html=1;align=left;verticalAlign=top;fillColor=none;spacingLeft=34;spacingRight=4;whiteSpace=wrap;overflow=hidden;rotatable=0;points=[[0,0.5],[1,0.5]];portConstraint=eastwest;dropTarget=0;" parent="LVxFtp3Oq3CbN3wsmhkk-7" vertex="1">
          <mxGeometry y="136" width="250" height="34" as="geometry" />
        </mxCell>
        <mxCell id="LVxFtp3Oq3CbN3wsmhkk-17" value="" style="shape=partialRectangle;top=0;left=0;bottom=0;html=1;fillColor=none;align=left;verticalAlign=top;spacingLeft=4;spacingRight=4;whiteSpace=wrap;overflow=hidden;rotatable=0;points=[];portConstraint=eastwest;part=1;" parent="LVxFtp3Oq3CbN3wsmhkk-16" vertex="1" connectable="0">
          <mxGeometry width="30" height="34" as="geometry" />
        </mxCell>
        <mxCell id="PP5xFTDmCJvI1x0iWZ2a-36" value="number_in_query INTEGER" style="shape=partialRectangle;top=0;left=0;right=0;bottom=0;html=1;align=left;verticalAlign=top;fillColor=none;spacingLeft=34;spacingRight=4;whiteSpace=wrap;overflow=hidden;rotatable=0;points=[[0,0.5],[1,0.5]];portConstraint=eastwest;dropTarget=0;" parent="LVxFtp3Oq3CbN3wsmhkk-7" vertex="1">
          <mxGeometry y="170" width="250" height="26" as="geometry" />
        </mxCell>
        <mxCell id="PP5xFTDmCJvI1x0iWZ2a-37" value="" style="shape=partialRectangle;top=0;left=0;bottom=0;html=1;fillColor=none;align=left;verticalAlign=top;spacingLeft=4;spacingRight=4;whiteSpace=wrap;overflow=hidden;rotatable=0;points=[];portConstraint=eastwest;part=1;" parent="PP5xFTDmCJvI1x0iWZ2a-36" vertex="1" connectable="0">
          <mxGeometry width="30" height="26" as="geometry" />
        </mxCell>
        <mxCell id="LVxFtp3Oq3CbN3wsmhkk-18" value="exercises" style="swimlane;html=1;fontStyle=0;childLayout=stackLayout;horizontal=1;startSize=26;fillColor=#e0e0e0;horizontalStack=0;resizeParent=1;resizeLast=0;collapsible=1;marginBottom=0;swimlaneFillColor=#ffffff;align=center;rounded=0;shadow=0;comic=0;labelBackgroundColor=none;strokeWidth=1;fontFamily=Verdana;fontSize=14" parent="1" vertex="1">
          <mxGeometry x="269" y="390" width="250" height="120" as="geometry" />
        </mxCell>
        <mxCell id="LVxFtp3Oq3CbN3wsmhkk-19" value="id INTEGER" style="shape=partialRectangle;top=0;left=0;right=0;bottom=1;html=1;align=left;verticalAlign=middle;fillColor=none;spacingLeft=34;spacingRight=4;whiteSpace=wrap;overflow=hidden;rotatable=0;points=[[0,0.5],[1,0.5]];portConstraint=eastwest;dropTarget=0;fontStyle=5;" parent="LVxFtp3Oq3CbN3wsmhkk-18" vertex="1">
          <mxGeometry y="26" width="250" height="30" as="geometry" />
        </mxCell>
        <mxCell id="LVxFtp3Oq3CbN3wsmhkk-20" value="PK" style="shape=partialRectangle;top=0;left=0;bottom=0;html=1;fillColor=none;align=left;verticalAlign=middle;spacingLeft=4;spacingRight=4;whiteSpace=wrap;overflow=hidden;rotatable=0;points=[];portConstraint=eastwest;part=1;" parent="LVxFtp3Oq3CbN3wsmhkk-19" vertex="1" connectable="0">
          <mxGeometry width="30" height="30" as="geometry" />
        </mxCell>
        <mxCell id="LVxFtp3Oq3CbN3wsmhkk-21" value="name TEXT" style="shape=partialRectangle;top=0;left=0;right=0;bottom=0;html=1;align=left;verticalAlign=top;fillColor=none;spacingLeft=34;spacingRight=4;whiteSpace=wrap;overflow=hidden;rotatable=0;points=[[0,0.5],[1,0.5]];portConstraint=eastwest;dropTarget=0;" parent="LVxFtp3Oq3CbN3wsmhkk-18" vertex="1">
          <mxGeometry y="56" width="250" height="26" as="geometry" />
        </mxCell>
        <mxCell id="LVxFtp3Oq3CbN3wsmhkk-22" value="" style="shape=partialRectangle;top=0;left=0;bottom=0;html=1;fillColor=none;align=left;verticalAlign=top;spacingLeft=4;spacingRight=4;whiteSpace=wrap;overflow=hidden;rotatable=0;points=[];portConstraint=eastwest;part=1;" parent="LVxFtp3Oq3CbN3wsmhkk-21" vertex="1" connectable="0">
          <mxGeometry width="30" height="26" as="geometry" />
        </mxCell>
        <mxCell id="LVxFtp3Oq3CbN3wsmhkk-23" value="muscle TEXT" style="shape=partialRectangle;top=0;left=0;right=0;bottom=0;html=1;align=left;verticalAlign=top;fillColor=none;spacingLeft=34;spacingRight=4;whiteSpace=wrap;overflow=hidden;rotatable=0;points=[[0,0.5],[1,0.5]];portConstraint=eastwest;dropTarget=0;" parent="LVxFtp3Oq3CbN3wsmhkk-18" vertex="1">
          <mxGeometry y="82" width="250" height="28" as="geometry" />
        </mxCell>
        <mxCell id="LVxFtp3Oq3CbN3wsmhkk-24" value="" style="shape=partialRectangle;top=0;left=0;bottom=0;html=1;fillColor=none;align=left;verticalAlign=top;spacingLeft=4;spacingRight=4;whiteSpace=wrap;overflow=hidden;rotatable=0;points=[];portConstraint=eastwest;part=1;" parent="LVxFtp3Oq3CbN3wsmhkk-23" vertex="1" connectable="0">
          <mxGeometry width="30" height="28" as="geometry" />
        </mxCell>
        <mxCell id="LVxFtp3Oq3CbN3wsmhkk-27" value="" style="shape=partialRectangle;top=0;left=0;right=0;bottom=0;html=1;align=left;verticalAlign=top;fillColor=none;spacingLeft=34;spacingRight=4;whiteSpace=wrap;overflow=hidden;rotatable=0;points=[[0,0.5],[1,0.5]];portConstraint=eastwest;dropTarget=0;" parent="LVxFtp3Oq3CbN3wsmhkk-18" vertex="1">
          <mxGeometry y="110" width="250" height="10" as="geometry" />
        </mxCell>
        <mxCell id="LVxFtp3Oq3CbN3wsmhkk-28" value="" style="shape=partialRectangle;top=0;left=0;bottom=0;html=1;fillColor=none;align=left;verticalAlign=top;spacingLeft=4;spacingRight=4;whiteSpace=wrap;overflow=hidden;rotatable=0;points=[];portConstraint=eastwest;part=1;" parent="LVxFtp3Oq3CbN3wsmhkk-27" vertex="1" connectable="0">
          <mxGeometry width="30" height="10" as="geometry" />
        </mxCell>
        <mxCell id="LVxFtp3Oq3CbN3wsmhkk-33" style="edgeStyle=orthogonalEdgeStyle;rounded=0;orthogonalLoop=1;jettySize=auto;html=1;entryX=0;entryY=0.5;entryDx=0;entryDy=0;" parent="1" source="LVxFtp3Oq3CbN3wsmhkk-19" target="LVxFtp3Oq3CbN3wsmhkk-12" edge="1">
          <mxGeometry relative="1" as="geometry" />
        </mxCell>
        <mxCell id="sUbEJ_gkhlNMki_CUB3S-1" value="planned_workouts" style="swimlane;html=1;fontStyle=0;childLayout=stackLayout;horizontal=1;startSize=26;fillColor=#e0e0e0;horizontalStack=0;resizeParent=1;resizeLast=0;collapsible=1;marginBottom=0;swimlaneFillColor=#ffffff;align=center;rounded=0;shadow=0;comic=0;labelBackgroundColor=none;strokeWidth=1;fontFamily=Verdana;fontSize=14" parent="1" vertex="1">
          <mxGeometry x="270" y="140" width="250" height="182" as="geometry" />
        </mxCell>
        <mxCell id="sUbEJ_gkhlNMki_CUB3S-2" value="id INTEGER" style="shape=partialRectangle;top=0;left=0;right=0;bottom=1;html=1;align=left;verticalAlign=middle;fillColor=none;spacingLeft=34;spacingRight=4;whiteSpace=wrap;overflow=hidden;rotatable=0;points=[[0,0.5],[1,0.5]];portConstraint=eastwest;dropTarget=0;fontStyle=5;" parent="sUbEJ_gkhlNMki_CUB3S-1" vertex="1">
          <mxGeometry y="26" width="250" height="34" as="geometry" />
        </mxCell>
        <mxCell id="sUbEJ_gkhlNMki_CUB3S-3" value="PK" style="shape=partialRectangle;top=0;left=0;bottom=0;html=1;fillColor=none;align=left;verticalAlign=middle;spacingLeft=4;spacingRight=4;whiteSpace=wrap;overflow=hidden;rotatable=0;points=[];portConstraint=eastwest;part=1;" parent="sUbEJ_gkhlNMki_CUB3S-2" vertex="1" connectable="0">
          <mxGeometry width="30" height="34" as="geometry" />
        </mxCell>
        <mxCell id="2e49270ec7c68f3f-83" value="name TEXT" style="shape=partialRectangle;top=0;left=0;right=0;bottom=0;html=1;align=left;verticalAlign=top;fillColor=none;spacingLeft=34;spacingRight=4;whiteSpace=wrap;overflow=hidden;rotatable=0;points=[[0,0.5],[1,0.5]];portConstraint=eastwest;dropTarget=0;" parent="sUbEJ_gkhlNMki_CUB3S-1" vertex="1">
          <mxGeometry y="60" width="250" height="26" as="geometry" />
        </mxCell>
        <mxCell id="2e49270ec7c68f3f-84" value="" style="shape=partialRectangle;top=0;left=0;bottom=0;html=1;fillColor=none;align=left;verticalAlign=top;spacingLeft=4;spacingRight=4;whiteSpace=wrap;overflow=hidden;rotatable=0;points=[];portConstraint=eastwest;part=1;" parent="2e49270ec7c68f3f-83" vertex="1" connectable="0">
          <mxGeometry width="30" height="26" as="geometry" />
        </mxCell>
        <mxCell id="2e49270ec7c68f3f-87" value="approximate_length INTEGER" style="shape=partialRectangle;top=0;left=0;right=0;bottom=0;html=1;align=left;verticalAlign=top;fillColor=none;spacingLeft=34;spacingRight=4;whiteSpace=wrap;overflow=hidden;rotatable=0;points=[[0,0.5],[1,0.5]];portConstraint=eastwest;dropTarget=0;" parent="sUbEJ_gkhlNMki_CUB3S-1" vertex="1">
          <mxGeometry y="86" width="250" height="28" as="geometry" />
        </mxCell>
        <mxCell id="2e49270ec7c68f3f-88" value="" style="shape=partialRectangle;top=0;left=0;bottom=0;html=1;fillColor=none;align=left;verticalAlign=top;spacingLeft=4;spacingRight=4;whiteSpace=wrap;overflow=hidden;rotatable=0;points=[];portConstraint=eastwest;part=1;" parent="2e49270ec7c68f3f-87" vertex="1" connectable="0">
          <mxGeometry width="30" height="28" as="geometry" />
        </mxCell>
        <mxCell id="sUbEJ_gkhlNMki_CUB3S-6" value="is_completed TEXT" style="shape=partialRectangle;top=0;left=0;right=0;bottom=0;html=1;align=left;verticalAlign=top;fillColor=none;spacingLeft=34;spacingRight=4;whiteSpace=wrap;overflow=hidden;rotatable=0;points=[[0,0.5],[1,0.5]];portConstraint=eastwest;dropTarget=0;" parent="sUbEJ_gkhlNMki_CUB3S-1" vertex="1">
          <mxGeometry y="114" width="250" height="38" as="geometry" />
        </mxCell>
        <mxCell id="sUbEJ_gkhlNMki_CUB3S-7" value="" style="shape=partialRectangle;top=0;left=0;bottom=0;html=1;fillColor=none;align=left;verticalAlign=top;spacingLeft=4;spacingRight=4;whiteSpace=wrap;overflow=hidden;rotatable=0;points=[];portConstraint=eastwest;part=1;" parent="sUbEJ_gkhlNMki_CUB3S-6" vertex="1" connectable="0">
          <mxGeometry width="30" height="38" as="geometry" />
        </mxCell>
        <mxCell id="sUbEJ_gkhlNMki_CUB3S-4" value="date TEXT" style="shape=partialRectangle;top=0;left=0;right=0;bottom=0;html=1;align=left;verticalAlign=top;fillColor=none;spacingLeft=34;spacingRight=4;whiteSpace=wrap;overflow=hidden;rotatable=0;points=[[0,0.5],[1,0.5]];portConstraint=eastwest;dropTarget=0;" parent="sUbEJ_gkhlNMki_CUB3S-1" vertex="1">
          <mxGeometry y="152" width="250" height="30" as="geometry" />
        </mxCell>
        <mxCell id="sUbEJ_gkhlNMki_CUB3S-5" value="" style="shape=partialRectangle;top=0;left=0;bottom=0;html=1;fillColor=none;align=left;verticalAlign=top;spacingLeft=4;spacingRight=4;whiteSpace=wrap;overflow=hidden;rotatable=0;points=[];portConstraint=eastwest;part=1;" parent="sUbEJ_gkhlNMki_CUB3S-4" vertex="1" connectable="0">
          <mxGeometry width="30" height="30" as="geometry" />
        </mxCell>
        <mxCell id="PP5xFTDmCJvI1x0iWZ2a-1" value="workout_templates&lt;br&gt;" style="swimlane;html=1;fontStyle=0;childLayout=stackLayout;horizontal=1;startSize=26;fillColor=#e0e0e0;horizontalStack=0;resizeParent=1;resizeLast=0;collapsible=1;marginBottom=0;swimlaneFillColor=#ffffff;align=center;rounded=0;shadow=0;comic=0;labelBackgroundColor=none;strokeWidth=1;fontFamily=Verdana;fontSize=14" parent="1" vertex="1">
          <mxGeometry x="270" y="642" width="250" height="110" as="geometry" />
        </mxCell>
        <mxCell id="PP5xFTDmCJvI1x0iWZ2a-2" value="id INTEGER" style="shape=partialRectangle;top=0;left=0;right=0;bottom=1;html=1;align=left;verticalAlign=middle;fillColor=none;spacingLeft=34;spacingRight=4;whiteSpace=wrap;overflow=hidden;rotatable=0;points=[[0,0.5],[1,0.5]];portConstraint=eastwest;dropTarget=0;fontStyle=5;" parent="PP5xFTDmCJvI1x0iWZ2a-1" vertex="1">
          <mxGeometry y="26" width="250" height="30" as="geometry" />
        </mxCell>
        <mxCell id="PP5xFTDmCJvI1x0iWZ2a-3" value="PK" style="shape=partialRectangle;top=0;left=0;bottom=0;html=1;fillColor=none;align=left;verticalAlign=middle;spacingLeft=4;spacingRight=4;whiteSpace=wrap;overflow=hidden;rotatable=0;points=[];portConstraint=eastwest;part=1;" parent="PP5xFTDmCJvI1x0iWZ2a-2" vertex="1" connectable="0">
          <mxGeometry width="30" height="30" as="geometry" />
        </mxCell>
        <mxCell id="PP5xFTDmCJvI1x0iWZ2a-4" value="name TEXT" style="shape=partialRectangle;top=0;left=0;right=0;bottom=0;html=1;align=left;verticalAlign=top;fillColor=none;spacingLeft=34;spacingRight=4;whiteSpace=wrap;overflow=hidden;rotatable=0;points=[[0,0.5],[1,0.5]];portConstraint=eastwest;dropTarget=0;" parent="PP5xFTDmCJvI1x0iWZ2a-1" vertex="1">
          <mxGeometry y="56" width="250" height="26" as="geometry" />
        </mxCell>
        <mxCell id="PP5xFTDmCJvI1x0iWZ2a-5" value="" style="shape=partialRectangle;top=0;left=0;bottom=0;html=1;fillColor=none;align=left;verticalAlign=top;spacingLeft=4;spacingRight=4;whiteSpace=wrap;overflow=hidden;rotatable=0;points=[];portConstraint=eastwest;part=1;" parent="PP5xFTDmCJvI1x0iWZ2a-4" vertex="1" connectable="0">
          <mxGeometry width="30" height="26" as="geometry" />
        </mxCell>
        <mxCell id="PP5xFTDmCJvI1x0iWZ2a-6" value="approximate_length INTEGER" style="shape=partialRectangle;top=0;left=0;right=0;bottom=0;html=1;align=left;verticalAlign=top;fillColor=none;spacingLeft=34;spacingRight=4;whiteSpace=wrap;overflow=hidden;rotatable=0;points=[[0,0.5],[1,0.5]];portConstraint=eastwest;dropTarget=0;" parent="PP5xFTDmCJvI1x0iWZ2a-1" vertex="1">
          <mxGeometry y="82" width="250" height="28" as="geometry" />
        </mxCell>
        <mxCell id="PP5xFTDmCJvI1x0iWZ2a-7" value="" style="shape=partialRectangle;top=0;left=0;bottom=0;html=1;fillColor=none;align=left;verticalAlign=top;spacingLeft=4;spacingRight=4;whiteSpace=wrap;overflow=hidden;rotatable=0;points=[];portConstraint=eastwest;part=1;" parent="PP5xFTDmCJvI1x0iWZ2a-6" vertex="1" connectable="0">
          <mxGeometry width="30" height="28" as="geometry" />
        </mxCell>
        <mxCell id="PP5xFTDmCJvI1x0iWZ2a-38" value="workout_template_exercises" style="swimlane;html=1;fontStyle=0;childLayout=stackLayout;horizontal=1;startSize=26;fillColor=#e0e0e0;horizontalStack=0;resizeParent=1;resizeLast=0;collapsible=1;marginBottom=0;swimlaneFillColor=#ffffff;align=center;rounded=0;shadow=0;comic=0;labelBackgroundColor=none;strokeWidth=1;fontFamily=Verdana;fontSize=14" parent="1" vertex="1">
          <mxGeometry x="581" y="613" width="250" height="196" as="geometry" />
        </mxCell>
        <mxCell id="PP5xFTDmCJvI1x0iWZ2a-39" value="id INTEGER" style="shape=partialRectangle;top=0;left=0;right=0;bottom=1;html=1;align=left;verticalAlign=middle;fillColor=none;spacingLeft=34;spacingRight=4;whiteSpace=wrap;overflow=hidden;rotatable=0;points=[[0,0.5],[1,0.5]];portConstraint=eastwest;dropTarget=0;fontStyle=5;" parent="PP5xFTDmCJvI1x0iWZ2a-38" vertex="1">
          <mxGeometry y="26" width="250" height="30" as="geometry" />
        </mxCell>
        <mxCell id="PP5xFTDmCJvI1x0iWZ2a-40" value="PK" style="shape=partialRectangle;top=0;left=0;bottom=0;html=1;fillColor=none;align=left;verticalAlign=middle;spacingLeft=4;spacingRight=4;whiteSpace=wrap;overflow=hidden;rotatable=0;points=[];portConstraint=eastwest;part=1;" parent="PP5xFTDmCJvI1x0iWZ2a-39" vertex="1" connectable="0">
          <mxGeometry width="30" height="30" as="geometry" />
        </mxCell>
        <mxCell id="PP5xFTDmCJvI1x0iWZ2a-41" value="workout_template_id INTEGER" style="shape=partialRectangle;top=0;left=0;right=0;bottom=0;html=1;align=left;verticalAlign=top;fillColor=none;spacingLeft=34;spacingRight=4;whiteSpace=wrap;overflow=hidden;rotatable=0;points=[[0,0.5],[1,0.5]];portConstraint=eastwest;dropTarget=0;" parent="PP5xFTDmCJvI1x0iWZ2a-38" vertex="1">
          <mxGeometry y="56" width="250" height="26" as="geometry" />
        </mxCell>
        <mxCell id="PP5xFTDmCJvI1x0iWZ2a-42" value="FK" style="shape=partialRectangle;top=0;left=0;bottom=0;html=1;fillColor=none;align=left;verticalAlign=top;spacingLeft=4;spacingRight=4;whiteSpace=wrap;overflow=hidden;rotatable=0;points=[];portConstraint=eastwest;part=1;" parent="PP5xFTDmCJvI1x0iWZ2a-41" vertex="1" connectable="0">
          <mxGeometry width="30" height="26" as="geometry" />
        </mxCell>
        <mxCell id="PP5xFTDmCJvI1x0iWZ2a-43" value="exercise_id INTEGER" style="shape=partialRectangle;top=0;left=0;right=0;bottom=0;html=1;align=left;verticalAlign=top;fillColor=none;spacingLeft=34;spacingRight=4;whiteSpace=wrap;overflow=hidden;rotatable=0;points=[[0,0.5],[1,0.5]];portConstraint=eastwest;dropTarget=0;" parent="PP5xFTDmCJvI1x0iWZ2a-38" vertex="1">
          <mxGeometry y="82" width="250" height="28" as="geometry" />
        </mxCell>
        <mxCell id="PP5xFTDmCJvI1x0iWZ2a-44" value="FK" style="shape=partialRectangle;top=0;left=0;bottom=0;html=1;fillColor=none;align=left;verticalAlign=top;spacingLeft=4;spacingRight=4;whiteSpace=wrap;overflow=hidden;rotatable=0;points=[];portConstraint=eastwest;part=1;" parent="PP5xFTDmCJvI1x0iWZ2a-43" vertex="1" connectable="0">
          <mxGeometry width="30" height="28" as="geometry" />
        </mxCell>
        <mxCell id="PP5xFTDmCJvI1x0iWZ2a-45" value="repeats INTEGER" style="shape=partialRectangle;top=0;left=0;right=0;bottom=0;html=1;align=left;verticalAlign=top;fillColor=none;spacingLeft=34;spacingRight=4;whiteSpace=wrap;overflow=hidden;rotatable=0;points=[[0,0.5],[1,0.5]];portConstraint=eastwest;dropTarget=0;" parent="PP5xFTDmCJvI1x0iWZ2a-38" vertex="1">
          <mxGeometry y="110" width="250" height="26" as="geometry" />
        </mxCell>
        <mxCell id="PP5xFTDmCJvI1x0iWZ2a-46" value="" style="shape=partialRectangle;top=0;left=0;bottom=0;html=1;fillColor=none;align=left;verticalAlign=top;spacingLeft=4;spacingRight=4;whiteSpace=wrap;overflow=hidden;rotatable=0;points=[];portConstraint=eastwest;part=1;" parent="PP5xFTDmCJvI1x0iWZ2a-45" vertex="1" connectable="0">
          <mxGeometry width="30" height="26" as="geometry" />
        </mxCell>
        <mxCell id="PP5xFTDmCJvI1x0iWZ2a-47" value="approaches INTEGER" style="shape=partialRectangle;top=0;left=0;right=0;bottom=0;html=1;align=left;verticalAlign=top;fillColor=none;spacingLeft=34;spacingRight=4;whiteSpace=wrap;overflow=hidden;rotatable=0;points=[[0,0.5],[1,0.5]];portConstraint=eastwest;dropTarget=0;" parent="PP5xFTDmCJvI1x0iWZ2a-38" vertex="1">
          <mxGeometry y="136" width="250" height="34" as="geometry" />
        </mxCell>
        <mxCell id="PP5xFTDmCJvI1x0iWZ2a-48" value="" style="shape=partialRectangle;top=0;left=0;bottom=0;html=1;fillColor=none;align=left;verticalAlign=top;spacingLeft=4;spacingRight=4;whiteSpace=wrap;overflow=hidden;rotatable=0;points=[];portConstraint=eastwest;part=1;" parent="PP5xFTDmCJvI1x0iWZ2a-47" vertex="1" connectable="0">
          <mxGeometry width="30" height="34" as="geometry" />
        </mxCell>
        <mxCell id="PP5xFTDmCJvI1x0iWZ2a-49" value="number_in_query INTEGER" style="shape=partialRectangle;top=0;left=0;right=0;bottom=0;html=1;align=left;verticalAlign=top;fillColor=none;spacingLeft=34;spacingRight=4;whiteSpace=wrap;overflow=hidden;rotatable=0;points=[[0,0.5],[1,0.5]];portConstraint=eastwest;dropTarget=0;" parent="PP5xFTDmCJvI1x0iWZ2a-38" vertex="1">
          <mxGeometry y="170" width="250" height="26" as="geometry" />
        </mxCell>
        <mxCell id="PP5xFTDmCJvI1x0iWZ2a-50" value="" style="shape=partialRectangle;top=0;left=0;bottom=0;html=1;fillColor=none;align=left;verticalAlign=top;spacingLeft=4;spacingRight=4;whiteSpace=wrap;overflow=hidden;rotatable=0;points=[];portConstraint=eastwest;part=1;" parent="PP5xFTDmCJvI1x0iWZ2a-49" vertex="1" connectable="0">
          <mxGeometry width="30" height="26" as="geometry" />
        </mxCell>
        <mxCell id="PP5xFTDmCJvI1x0iWZ2a-51" style="edgeStyle=orthogonalEdgeStyle;rounded=0;orthogonalLoop=1;jettySize=auto;html=1;exitX=1;exitY=0.5;exitDx=0;exitDy=0;entryX=0;entryY=0.5;entryDx=0;entryDy=0;" parent="1" source="PP5xFTDmCJvI1x0iWZ2a-2" target="PP5xFTDmCJvI1x0iWZ2a-41" edge="1">
          <mxGeometry relative="1" as="geometry" />
        </mxCell>
        <mxCell id="PP5xFTDmCJvI1x0iWZ2a-53" style="edgeStyle=orthogonalEdgeStyle;rounded=0;orthogonalLoop=1;jettySize=auto;html=1;exitX=1;exitY=0.5;exitDx=0;exitDy=0;entryX=0;entryY=0.5;entryDx=0;entryDy=0;" parent="1" source="LVxFtp3Oq3CbN3wsmhkk-19" target="PP5xFTDmCJvI1x0iWZ2a-43" edge="1">
          <mxGeometry relative="1" as="geometry" />
        </mxCell>
        <mxCell id="xGZT5XbQ4FDhXSRuCbwy-2" style="edgeStyle=orthogonalEdgeStyle;rounded=0;orthogonalLoop=1;jettySize=auto;html=1;exitX=1;exitY=0.5;exitDx=0;exitDy=0;entryX=0;entryY=0.5;entryDx=0;entryDy=0;" edge="1" parent="1" source="sUbEJ_gkhlNMki_CUB3S-2" target="LVxFtp3Oq3CbN3wsmhkk-10">
          <mxGeometry relative="1" as="geometry" />
        </mxCell>
      </root>
    </mxGraphModel>
  </diagram>
</mxfile>
